<svg x="0" y="0" width="700" height="350" viewBox="0 0 700 350" xmlns="http://www.w3.org/2000/svg" xmlns:xlink="http://www.w3.org/1999/xlink" xmlns:fi="http://pattern.flaticon.com/"><rect x="0px" y="0px" width="100%" height="100%" opacity="1" fill="#111111"/><defs><path d="M256,0C114.664,0,0,115.612,0,256c0,140.959,115.049,256,256,256c140.96,0,256-115.049,256-256    C512,115.04,396.951,0,256,0z M256,30c24.968,0,49,4.079,71.474,11.59c-4.212,6.221-6.846,14.445-6.846,25.056    c0,16.203,7.242,30.686,14.245,44.693c5.697,11.394,11.078,22.156,11.078,31.277c0,5.274-1.255,6.489-5.57,7.928    c-8.237,2.746-23.532,2.421-34.003,2.387c-24.718-0.083-52.751-0.173-82.65,29.725c-4.129,4.131-6.365,4.342-20.669-2.81    c-13.087-6.544-34.994-17.496-55.299,2.81c-11.877,11.877-16.568,28.603-13.284,45.566c-14.677-5.698-34.972-8.336-37.455-14.634    c-1.149-2.913-2.943-15.593,22.207-56.423c9.327-15.143,20.532-37.33,10.194-55.103c-5.014-8.62-13.414-13.208-22.689-15.599    C146.574,51.343,198.838,30,256,30z M256,482C131.383,482,30,380.617,30,256c0-53.708,18.844-103.091,50.251-141.911    c17.288-0.148,21.957,1.955,23.206,3.073c0.16,0.983,0.617,7.403-9.773,24.27c-24.516,39.801-31.864,64.672-24.572,83.163    c9.85,24.978,40.77,25.015,57.557,32.894c10.157,4.767,61.419,28.38,67.343,37.179v25.212c0,18.795,17.746,28.946,32.005,37.103    c5.777,3.304,17.798,10.181,18.641,13.544c0,59.838,5.76,92.78,13.185,111.451C257.228,481.982,256.616,482,256,482z     M295.02,465.781c0.094,3.019-3.058,9.164-5.778,11.912c-3.826-5.306-14.583-27.335-14.583-107.167    c0-20.282-18.71-30.985-33.745-39.584c-5.292-3.027-15.099-8.58-17.001-11.642v-24.743c0-4.04-0.652-7.646-1.948-10.889    c24.928-2.291,37.073-11.073,46.283-17.733c6.467-4.677,9.713-7.024,16.734-7.024c0.202,0,0.305,0.014,0.303,0.012    c1.577,0.772,4.93,6.377,6.935,9.729c17.009,28.421,33.601,38.577,66.132,45.702c4.361,0.955,10.847,2.376,12.771,3.657    c0.065,0.306,0.152,0.896,0.152,1.868c0,30.954-23.826,53.379-44.848,73.164c-16.856,15.865-31.414,29.567-31.414,46.952    C295.012,442.424,294.98,464.458,295.02,465.781z M324.561,471.357c0.343-2.17,0.404-4.312,0.348-6.383    c-0.022-2.032,0.004-24.826,0.004-24.975c0.001-0.021,0.226-2.186,4.776-7.691c4.233-5.123,10.58-11.096,17.3-17.421    c22.91-21.563,54.286-51.094,54.286-95.01c0-15.037-7.585-23.037-13.948-27.1c-6.652-4.247-14.377-5.939-22.557-7.731    c-24.296-5.322-34.082-10.531-46.805-31.797c-6.145-10.273-14.561-24.342-32.983-24.342c-16.731,0-26.48,7.05-34.313,12.714    c-8.967,6.485-17.438,12.609-41.656,12.609c-24.055,0-38.364-13.938-43.308-25.873c-1.869-4.512-5.292-15.93,3.268-24.49    c4.131-4.13,6.366-4.342,20.67,2.81c13.087,6.544,34.993,17.497,55.299-2.81c21.071-21.071,38.846-21.012,61.339-20.939    c14.395,0.046,30.781,0.343,43.587-3.927c16.82-5.607,26.084-18.53,26.084-36.388c0-16.203-7.242-30.686-14.245-44.693    c-5.697-11.394-11.078-22.156-11.078-31.277c0-7.038,1.529-10.976,9.293-11.292C432.387,93.039,482,168.831,482,256    C482,356.724,415.761,442.257,324.561,471.357z" transform="matrix(0.15336894989013672 0.11751647293567657 -0.11751647293567657 0.15336894989013672 285.82177734375 -55.3466682434082)" id="L1_6" fill="#1a1a1a"/><g transform="matrix(0.058091651648283005 -0.17874358594417572 0.17874358594417572 0.058091651648283005 238.37005615234375 220.88677978515625)" id="L1_7"><path d="M511.37,49.299c2.166-7.766-1.051-24.461-12.586-36.036C486.979,1.416,470.259-1.418,462.957,0.617    c-52.236,14.568-100.063,42.483-138.308,80.73l-23.007,23.008l-66.66-18.18l18.086-18.086c5.857-5.856,5.857-15.353,0-21.21    c-5.855-5.856-15.352-5.857-21.21,0l-30.206,30.205L76.728,43.015c-5.19-1.417-10.746,0.059-14.551,3.864L19.757,89.3    c-7.033,7.033-5.394,18.874,3.321,23.715l173.509,96.394L172.7,233.298c-11.421,11.42-21.422,23.186-30.259,35.729H59.071    c-3.931,0-7.705,1.543-10.509,4.297L4.488,316.611c-8.066,7.923-4.789,21.663,6.072,25.026l88.439,27.387    c0.138,6.502,1.623,12.769,4.338,18.475L90.886,399.95c-5.857,5.856-5.857,15.353,0,21.21c5.856,5.857,15.353,5.857,21.21,0    l12.414-12.414c5.722,2.744,12.011,4.237,18.531,4.361l27.309,88.314c3.326,10.759,16.914,14.144,24.9,6.207l44.287-44.015    c2.833-2.815,4.425-6.644,4.425-10.637v-84.84c0-0.284-0.027-0.562-0.042-0.843c15.089-10.53,29.267-22.385,42.327-35.445    l16.39-16.389l96.394,173.508c4.833,8.7,16.666,10.371,23.715,3.321l42.42-42.419c3.806-3.805,5.28-9.359,3.864-14.551    l-34.07-124.924l30.205-30.204c5.857-5.857,5.857-15.353,0-21.21c-5.856-5.857-15.353-5.856-21.21,0l-18.086,18.085l-18.18-66.66    l23.007-23.007C468.946,149.153,496.841,101.398,511.37,49.299z M106.918,340.075l-63.494-19.662l21.781-21.393h59.071    C117.743,311.681,112.02,325.262,106.918,340.075z M55.026,96.45l22.207-22.207l199.98,54.54l-58.567,58.567L55.026,96.45z     M213.966,446.735l-22.283,22.147l-19.8-64.029c14.494-5.321,28.561-11.695,42.083-19.047V446.735z M437.802,434.812    l-22.207,22.207l-90.9-163.62l58.566-58.566L437.802,434.812z M265.037,310.638c-31.16,31.16-69.354,54.736-111.167,68.747    l43.065-43.065c5.857-5.856,5.857-15.353,0-21.21c-5.856-5.857-15.353-5.856-21.21,0l-43.275,43.274    c13.816-43.786,32.155-74.576,61.458-103.878c7.485-7.486,143.374-143.374,151.95-151.95    c34.044-34.043,76.48-59.042,122.862-72.396c3.336,0.383,6.418,1.867,8.816,4.273c2.442,2.451,3.936,5.619,4.301,9.061    c-13.314,46.258-38.298,88.641-72.349,122.692C393.132,182.543,281.395,294.28,265.037,310.638z" fill="#171717"/><path d="M422.746,89.3c-5.857-5.858-15.354-5.858-21.21,0l-21.21,21.21c-5.857,5.857-5.857,15.353,0,21.21    c5.856,5.857,15.353,5.858,21.21,0l21.21-21.21C428.603,104.652,428.603,95.157,422.746,89.3z" fill="#171717"/></g><path d="M508.952,366.936L436.198,271H466c5.682,0,10.875-3.21,13.417-8.292c2.541-5.082,1.993-11.163-1.417-15.708l-71.998-96    H436c5.671,0,10.857-3.198,13.403-8.265s2.017-11.137-1.367-15.687l-90-121C355.206,2.243,350.742,0,346,0    s-9.206,2.243-12.036,6.048L256,110.867L178.036,6.048C175.206,2.243,170.742,0,166,0s-9.206,2.243-12.036,6.048l-90,121    c-3.385,4.55-3.914,10.62-1.367,15.687C65.143,147.802,70.329,151,76,151h29.998L34,247c-3.409,4.545-3.957,10.626-1.417,15.708    C35.125,267.79,40.318,271,46,271h29.802L3.048,366.936c-3.441,4.539-4.016,10.635-1.482,15.736C4.1,387.774,9.304,391,15,391h106    v91H76c-8.284,0-15,6.716-15,15s6.716,15,15,15c25.38,0,345.13,0,360,0c8.284,0,15-6.716,15-15s-6.716-15-15-15h-45v-91h106    c5.696,0,10.9-3.226,13.434-8.328C512.968,377.571,512.394,371.475,508.952,366.936z M436.001,241h-29.995    c-0.006,0-0.012,0-0.018,0c-3.831,0.002-7.729,1.529-10.594,4.393L376,264.787l-19.394-19.393c-5.857-5.858-15.355-5.858-21.213,0    L316,264.787l-18.646-18.647L274.75,216l42.872-57.164l17.772,17.772C338.322,179.536,342.161,181,346,181    s7.678-1.464,10.606-4.394l17.772-17.772L436.001,241z M346,40.133L406.148,121h-30.143c-0.011,0-0.022,0.001-0.033,0.001    c-3.928,0.009-7.799,1.613-10.579,4.393L346,144.787l-19.394-19.393c-2.871-2.867-6.756-4.384-10.579-4.393    c-0.011,0-0.022-0.001-0.033-0.001h-30.143L346,40.133z M285.998,151L256,190.998L226.002,151C233.262,151,278.69,151,285.998,151    z M105.852,121L166,40.134L226.148,121h-30.143c-0.011,0-0.022,0.001-0.033,0.001c-3.926,0.009-7.787,1.605-10.579,4.393    L166,144.787l-19.394-19.393c-2.871-2.867-6.756-4.384-10.579-4.393c-0.011,0-0.022-0.001-0.033-0.001H105.852z M137.622,158.834    l17.772,17.772c2.928,2.93,6.767,4.394,10.606,4.394s7.678-1.464,10.606-4.394l17.772-17.772l49.443,65.927    c0.016,0.022,0.033,0.043,0.049,0.065L256.001,241c-17.963,0-11.978,0-30.003,0c-3.85,0-7.718,1.514-10.604,4.394L196,264.787    l-19.394-19.393c-5.857-5.858-15.355-5.858-21.213,0L136,264.787l-19.394-19.393c-2.793-2.793-6.658-4.391-10.594-4.393    c-0.006,0-0.012,0-0.018,0H76L137.622,158.834z M45.201,361l62.358-82.228l17.835,17.835c5.857,5.858,15.355,5.858,21.213,0    L166,277.213l19.394,19.393c5.857,5.858,15.355,5.858,21.213,0l17.769-17.769L286,361C278.001,361,49.652,361,45.201,361z     M181,482h-30v-91h30V482z M301,482h-90v-91h90V482z M361,482h-30v-91h30V482z M323.5,361l-67.502-90h23.791l25.604,25.606    C308.206,299.419,312.022,301,316,301c3.978,0,7.793-1.581,10.606-4.394L346,277.213l19.394,19.393    c2.928,2.93,6.767,4.394,10.606,4.394s7.678-1.464,10.606-4.394l17.835-17.835L466.799,361H323.5z" transform="matrix(0.13144510984420776 0.06360246986150742 -0.06360246986150742 0.13144510984420776 110.63228607177734 230.0678253173828)" id="L1_8" fill="#171717"/><g transform="matrix(0.18918131291866302 -0.0810777097940445 0.0810777097940445 0.18918131291866302 59.813690185546875 84.32547760009766)" id="L1_9"><path d="M301,65.482V45c0-24.813-20.187-45-45-45s-45,20.187-45,45v20.482C109.281,86.022,31,176.124,31,286    c0,124.617,100.935,226,225,226s225-101.383,225-226C481,176.159,402.74,86.026,301,65.482z M241,45c0-8.271,6.729-15,15-15    s15,6.729,15,15v16.504C266.028,61.179,261.028,61,256,61s-10.028,0.179-15,0.504V45z M256,482c-107.523,0-195-87.925-195-196    c0-107.523,87.477-195,195-195s195,87.477,195,195C451,394.075,363.523,482,256,482z" fill="#1c1c1c"/><path d="M256,121c-8.284,0-15,6.716-15,15v30c0,8.284,6.716,15,15,15s15-6.716,15-15v-30C271,127.716,264.284,121,256,121z" fill="#1c1c1c"/><path d="M256,391c-8.284,0-15,6.716-15,15v30c0,8.284,6.716,15,15,15s15-6.716,15-15v-30C271,397.716,264.284,391,256,391z" fill="#1c1c1c"/><path d="M136,271h-30c-8.284,0-15,6.716-15,15s6.716,15,15,15h30c8.284,0,15-6.716,15-15S144.284,271,136,271z" fill="#1c1c1c"/><path d="M406,271h-30c-8.284,0-15,6.716-15,15s6.716,15,15,15h30c8.284,0,15-6.716,15-15S414.284,271,406,271z" fill="#1c1c1c"/><path d="M176.45,362.443c-5.857-5.858-15.355-5.858-21.213,0l-21.213,21.213c-5.858,5.858-5.858,15.355,0,21.213    c5.857,5.858,15.355,5.858,21.213,0l21.213-21.213C182.308,377.798,182.308,368.301,176.45,362.443z" fill="#1c1c1c"/><path d="M367.369,171.525c-5.857-5.858-15.355-5.858-21.213,0l-21.213,21.213c-5.858,5.858-5.858,15.355,0,21.213    c5.857,5.857,15.355,5.858,21.213,0l21.213-21.213C373.227,186.88,373.227,177.383,367.369,171.525z" fill="#1c1c1c"/><path d="M372.672,381.462l-10.769-10.77l-62.567-121.555c-0.003-0.006-0.007-0.011-0.01-0.017    c-1.486-2.882-3.788-5.074-6.446-6.448c-0.005-0.003-0.01-0.006-0.015-0.008l-121.556-62.567l-10.768-10.768    c-5.857-5.858-15.354-5.858-21.213,0c-5.858,5.858-5.858,15.355,0,21.213l10.768,10.769l62.567,121.556    c0.002,0.003,0.004,0.007,0.006,0.01c1.354,2.624,3.618,4.993,6.458,6.457c0.003,0.001,0.006,0.003,0.008,0.005l121.555,62.567    l10.769,10.769c5.857,5.857,15.354,5.859,21.213,0C378.53,396.817,378.53,387.32,372.672,381.462z M197.125,227.124l63.733,32.805    l-30.928,30.928L197.125,227.124z M251.142,312.071l30.928-30.928l32.805,63.733L251.142,312.071z" fill="#1c1c1c"/></g></defs><g fi:class="KUsePattern"><pattern id="pattern_L1_6" width="350" height="350" patternUnits="userSpaceOnUse"><use xlink:href="#L1_6" x="-350" y="-350"/><use xlink:href="#L1_6" x="0" y="-350"/><use xlink:href="#L1_6" x="350" y="-350"/><use xlink:href="#L1_6" x="-350" y="0"/><use xlink:href="#L1_6" x="0" y="0"/><use xlink:href="#L1_6" x="350" y="0"/><use xlink:href="#L1_6" x="-350" y="350"/><use xlink:href="#L1_6" x="0" y="350"/><use xlink:href="#L1_6" x="350" y="350"/></pattern><rect x="0" y="0" width="100%" height="100%" fill="url(#pattern_L1_6)"/></g><g fi:class="KUsePattern"><pattern id="pattern_L1_7" width="350" height="350" patternUnits="userSpaceOnUse"><use xlink:href="#L1_7" x="-350" y="-350"/><use xlink:href="#L1_7" x="0" y="-350"/><use xlink:href="#L1_7" x="350" y="-350"/><use xlink:href="#L1_7" x="-350" y="0"/><use xlink:href="#L1_7" x="0" y="0"/><use xlink:href="#L1_7" x="350" y="0"/><use xlink:href="#L1_7" x="-350" y="350"/><use xlink:href="#L1_7" x="0" y="350"/><use xlink:href="#L1_7" x="350" y="350"/></pattern><rect x="0" y="0" width="100%" height="100%" fill="url(#pattern_L1_7)"/></g><g fi:class="KUsePattern"><pattern id="pattern_L1_8" width="350" height="350" patternUnits="userSpaceOnUse"><use xlink:href="#L1_8" x="-350" y="-350"/><use xlink:href="#L1_8" x="0" y="-350"/><use xlink:href="#L1_8" x="350" y="-350"/><use xlink:href="#L1_8" x="-350" y="0"/><use xlink:href="#L1_8" x="0" y="0"/><use xlink:href="#L1_8" x="350" y="0"/><use xlink:href="#L1_8" x="-350" y="350"/><use xlink:href="#L1_8" x="0" y="350"/><use xlink:href="#L1_8" x="350" y="350"/></pattern><rect x="0" y="0" width="100%" height="100%" fill="url(#pattern_L1_8)"/></g><g fi:class="KUsePattern"><pattern id="pattern_L1_9" width="350" height="350" patternUnits="userSpaceOnUse"><use xlink:href="#L1_9" x="-350" y="-350"/><use xlink:href="#L1_9" x="0" y="-350"/><use xlink:href="#L1_9" x="350" y="-350"/><use xlink:href="#L1_9" x="-350" y="0"/><use xlink:href="#L1_9" x="0" y="0"/><use xlink:href="#L1_9" x="350" y="0"/><use xlink:href="#L1_9" x="-350" y="350"/><use xlink:href="#L1_9" x="0" y="350"/><use xlink:href="#L1_9" x="350" y="350"/></pattern><rect x="0" y="0" width="100%" height="100%" fill="url(#pattern_L1_9)"/></g></svg>